<svg xmlns="http://www.w3.org/2000/svg" version="1.1" xmlns:xlink="http://www.w3.org/1999/xlink" xmlns:svgjs="http://svgjs.dev/svgjs" width="1000" height="136" viewBox="0 0 1000 136"><g transform="matrix(1,0,0,1,-0.6060602476708254,0.44945875479888286)"><svg viewBox="0 0 396 54" data-background-color="#ffffff" preserveAspectRatio="xMidYMid meet" height="136" width="1000" xmlns="http://www.w3.org/2000/svg" xmlns:xlink="http://www.w3.org/1999/xlink"><g id="tight-bounds" transform="matrix(1,0,0,1,0.2400001419223372,-0.17846156440543837)"><svg viewBox="0 0 395.52 54.35692088133737" height="54.35692088133737" width="395.52"><g><svg viewBox="0 0 455.16298867424774 62.5537483906734" height="54.35692088133737" width="395.52"><g transform="matrix(1,0,0,1,59.64298867424776,19.330016213924665)"><svg viewBox="0 0 395.52 23.893715962824064" height="23.893715962824064" width="395.52"><g id="textblocktransform"><svg viewBox="0 0 395.52 23.893715962824064" height="23.893715962824064" width="395.52" id="textblock"><g><svg viewBox="0 0 395.52 23.893715962824064" height="23.893715962824064" width="395.52"><g transform="matrix(1,0,0,1,0,0)"><svg width="395.52" viewBox="2.049999952316284 -36.5 613.260009765625 37.04999923706055" height="23.893715962824064" data-palette-color="#7a26c1"><path d="M17.45-33.6L12.25-32.55 12.25-3.25 25.35-3.25 27.05-11.9 30.3-11.9 30.3 0 2.05 0 2.05-2.4 6.75-3.45 6.75-32.55 2.05-33.6 2.05-36 17.45-36 17.45-33.6ZM53.9-2.4L58-3.45 55.2-11.95 42.2-11.95 39.3-3.45 43.45-2.4 43.45 0 31.25 0 31.25-2.4 35.35-3.45 47.25-36.5 52.4-36.5 64.15-3.45 68.15-2.4 68.15 0 53.9 0 53.9-2.4ZM49-31.35L48.8-31.35 43.3-15.1 54.15-15.1 49-31.35ZM70.14-2.4L74.34-3.45 74.34-32.55 70.14-33.6 70.14-36 80.34-36 98.39-8.75 98.39-32.55 94.19-33.6 94.19-36 106.34-36 106.34-33.6 102.15-32.55 102.15 0 97.89 0 78.09-29.55 78.09-3.45 82.3-2.4 82.3 0 70.14 0 70.14-2.4ZM126.49-3L126.49-3Q130.74-3 132.77-5.13 134.79-7.25 134.79-11.4L134.79-11.4 134.79-14.4 130.59-15.45 130.59-17.95 144.49-17.95 144.49-15.45 140.29-14.4 140.29 0 137.19 0 135.94-3.95Q133.79-1.55 131.47-0.53 129.14 0.5 125.99 0.5L125.99 0.5Q119.14 0.5 115.04-3.7L115.04-3.7Q112.74-6.05 111.47-9.65 110.19-13.25 110.19-17.6L110.19-17.6Q110.19-22.05 111.52-25.88 112.84-29.7 115.24-32.2L115.24-32.2Q117.29-34.35 120.04-35.43 122.79-36.5 126.34-36.5L126.34-36.5Q129.34-36.5 131.42-35.63 133.49-34.75 135.34-32.65L135.34-32.65 136.44-36 139.69-36 139.69-24.7 136.14-24.7Q135.44-28.95 132.97-31.25 130.49-33.55 126.29-33.55L126.29-33.55Q123.84-33.55 122.19-32.75 120.54-31.95 119.34-30.3L119.34-30.3Q117.94-28.2 117.09-25.05 116.24-21.9 116.24-18.3L116.24-18.3Q116.24-14.65 117.12-11.48 117.99-8.3 119.59-6.1L119.59-6.1Q120.79-4.5 122.47-3.75 124.14-3 126.49-3ZM164.19-33.55L164.19-33.55Q161.94-33.55 160.22-32.77 158.49-32 157.34-30.45L157.34-30.45Q155.89-28.5 155.02-25.4 154.14-22.3 154.14-18.6L154.14-18.6Q154.14-15.05 154.89-11.95 155.64-8.85 156.99-6.75L156.99-6.75Q158.24-4.8 160.14-3.88 162.04-2.95 164.79-2.95L164.79-2.95Q173.59-2.95 175.04-11.4L175.04-11.4 178.29-11.4Q175.94 0.5 164.09 0.5L164.09 0.5Q157.19 0.5 153.09-3.5L153.09-3.5Q150.64-5.9 149.34-9.55 148.04-13.2 148.04-17.65L148.04-17.65Q148.04-22.7 149.69-26.8 151.34-30.9 154.34-33.35L154.34-33.35Q158.14-36.5 164.39-36.5L164.39-36.5Q167.49-36.5 169.44-35.7 171.39-34.9 173.29-32.85L173.29-32.85 174.29-36 177.54-36 177.54-24.7 173.99-24.7Q173.29-29.1 170.79-31.33 168.29-33.55 164.19-33.55ZM218.14-33.6L213.94-32.55 213.94-3.45 218.14-2.4 218.14 0 204.24 0 204.24-2.4 208.44-3.45 208.44-16.9 191.99-16.9 191.99-3.45 196.19-2.4 196.19 0 182.29 0 182.29-2.4 186.49-3.45 186.49-32.55 182.29-33.6 182.29-36 196.19-36 196.19-33.6 191.99-32.55 191.99-20.05 208.44-20.05 208.44-32.55 204.24-33.6 204.24-36 218.14-36 218.14-33.6ZM242.59-2.4L246.69-3.45 243.89-11.95 230.89-11.95 227.99-3.45 232.14-2.4 232.14 0 219.94 0 219.94-2.4 224.04-3.45 235.94-36.5 241.09-36.5 252.84-3.45 256.84-2.4 256.84 0 242.59 0 242.59-2.4ZM237.69-31.35L237.49-31.35 231.99-15.1 242.84-15.1 237.69-31.35ZM273.48-33.6L268.78-32.55 268.78-3.45 273.48-2.4 273.48 0 258.58 0 258.58-2.4 263.28-3.45 263.28-32.55 258.58-33.6 258.58-36 273.48-36 273.48-33.6ZM277.78-2.4L281.98-3.45 281.98-32.55 277.78-33.6 277.78-36 287.98-36 306.03-8.75 306.03-32.55 301.83-33.6 301.83-36 313.98-36 313.98-33.6 309.78-32.55 309.78 0 305.53 0 285.73-29.55 285.73-3.45 289.93-2.4 289.93 0 277.78 0 277.78-2.4ZM346.82-33.55L346.82-33.55Q344.57-33.55 342.85-32.77 341.13-32 339.98-30.45L339.98-30.45Q338.53-28.5 337.65-25.4 336.78-22.3 336.78-18.6L336.78-18.6Q336.78-15.05 337.53-11.95 338.28-8.85 339.63-6.75L339.63-6.75Q340.88-4.8 342.78-3.88 344.68-2.95 347.43-2.95L347.43-2.95Q356.23-2.95 357.68-11.4L357.68-11.4 360.93-11.4Q358.57 0.5 346.73 0.5L346.73 0.5Q339.82 0.5 335.73-3.5L335.73-3.5Q333.28-5.9 331.98-9.55 330.68-13.2 330.68-17.65L330.68-17.65Q330.68-22.7 332.32-26.8 333.98-30.9 336.98-33.35L336.98-33.35Q340.78-36.5 347.03-36.5L347.03-36.5Q350.13-36.5 352.07-35.7 354.03-34.9 355.93-32.85L355.93-32.85 356.93-36 360.18-36 360.18-24.7 356.63-24.7Q355.93-29.1 353.43-31.33 350.93-33.55 346.82-33.55ZM400.77-33.6L396.57-32.55 396.57-3.45 400.77-2.4 400.77 0 386.87 0 386.87-2.4 391.07-3.45 391.07-16.9 374.62-16.9 374.62-3.45 378.82-2.4 378.82 0 364.92 0 364.92-2.4 369.12-3.45 369.12-32.55 364.92-33.6 364.92-36 378.82-36 378.82-33.6 374.62-32.55 374.62-20.05 391.07-20.05 391.07-32.55 386.87-33.6 386.87-36 400.77-36 400.77-33.6ZM425.22-2.4L429.32-3.45 426.52-11.95 413.52-11.95 410.62-3.45 414.77-2.4 414.77 0 402.57 0 402.57-2.4 406.67-3.45 418.57-36.5 423.72-36.5 435.47-3.45 439.47-2.4 439.47 0 425.22 0 425.22-2.4ZM420.32-31.35L420.12-31.35 414.62-15.1 425.47-15.1 420.32-31.35ZM437.92-25.25L437.92-36 468.22-36 468.22-25.25 465.42-25.25 463.82-32.75 455.82-32.75 455.82-3.6 461.12-2.4 461.12 0 445.02 0 445.02-2.4 450.32-3.6 450.32-32.75 442.27-32.75 440.72-25.25 437.92-25.25ZM479.37-32.55L487.56-17.25 495.92-32.55 491.87-33.6 491.87-36 503.72-36 503.72-33.6 499.62-32.55 489.56-14.1 489.56-3.45 494.26-2.4 494.26 0 479.37 0 479.37-2.4 484.06-3.45 484.06-13.3 473.42-32.55 469.26-33.6 469.26-36 483.56-36 483.56-33.6 479.37-32.55ZM533.01-13.2L533.01-13.2 533.01-32.55 528.81-33.6 528.81-36 540.86-36 540.86-33.6 536.66-32.55 536.66-12.15Q536.66-5.95 533.19-2.7 529.71 0.55 523.01 0.55L523.01 0.55Q516.36 0.55 512.79-2.78 509.21-6.1 509.21-12.2L509.21-12.2 509.21-32.55 505.01-33.6 505.01-36 518.91-36 518.91-33.6 514.71-32.55 514.71-13.3Q514.71-2.45 524.11-2.45L524.11-2.45Q528.81-2.45 530.91-5 533.01-7.55 533.01-13.2ZM562.86-2.4L566.96-3.45 564.16-11.95 551.16-11.95 548.26-3.45 552.41-2.4 552.41 0 540.21 0 540.21-2.4 544.31-3.45 556.21-36.5 561.36-36.5 573.11-3.45 577.11-2.4 577.11 0 562.86 0 562.86-2.4ZM557.96-31.35L557.76-31.35 552.26-15.1 563.11-15.1 557.96-31.35ZM579.11-2.4L583.31-3.45 583.31-32.55 579.11-33.6 579.11-36 589.31-36 607.36-8.75 607.36-32.55 603.16-33.6 603.16-36 615.31-36 615.31-33.6 611.11-32.55 611.11 0 606.86 0 587.06-29.55 587.06-3.45 591.26-2.4 591.26 0 579.11 0 579.11-2.4Z" opacity="1" transform="matrix(1,0,0,1,0,0)" fill="#7a26c1" class="undefined-text-0" data-fill-palette-color="primary" id="text-0"></path></svg></g></svg></g></svg></g></svg></g><g><svg viewBox="0 0 54.0022557846081 62.5537483906734" height="62.5537483906734" width="54.0022557846081"><g><svg xmlns="http://www.w3.org/2000/svg" xmlns:xlink="http://www.w3.org/1999/xlink" version="1.1" x="0" y="0" viewBox="9.63800048828125 3.246999979019165 80.7239990234375 93.50699615478516" enable-background="new 0 0 100 100" xml:space="preserve" height="62.5537483906734" width="54.0022557846081" class="icon-icon-0" data-fill-palette-color="accent" id="icon-0"><g fill="#a437db" data-fill-palette-color="accent"><g fill="#a437db" data-fill-palette-color="accent"><polygon points="36.703,11.011 9.638,26.636 9.638,38.757 36.703,23.131 63.767,38.757 63.767,26.636   " fill="#a437db" data-fill-palette-color="accent"></polygon></g><g fill="#a437db" data-fill-palette-color="accent"><polygon points="63.298,89.092 36.233,73.467 36.233,61.348 63.298,76.973 90.362,61.348 90.362,73.467   " fill="#a437db" data-fill-palette-color="accent"></polygon></g><g fill="#a437db" data-fill-palette-color="accent"><polygon points="9.638,42.012 36.703,26.386 47.198,32.446 20.134,48.072 20.134,79.324 9.638,73.264   " fill="#a437db" data-fill-palette-color="accent"></polygon></g><g fill="#a437db" data-fill-palette-color="accent"><polygon points="77.083,18.872 50.018,3.247 39.522,9.307 66.586,24.932 66.586,56.184 77.083,50.124   " fill="#a437db" data-fill-palette-color="accent"></polygon></g><g fill="#a437db" data-fill-palette-color="accent"><polygon points="23.01,81.127 23.011,49.876 33.507,43.816 33.507,75.068 60.571,90.693 50.075,96.754   " fill="#a437db" data-fill-palette-color="accent"></polygon></g><g fill="#a437db" data-fill-palette-color="accent"><polygon points="90.362,58.092 90.362,26.84 79.866,20.78 79.866,52.031 52.802,67.658 63.298,73.719   " fill="#a437db" data-fill-palette-color="accent"></polygon></g></g></svg></g></svg></g></svg></g><defs></defs></svg><rect width="395.52" height="54.35692088133737" fill="none" stroke="none" visibility="hidden"></rect></g></svg></g></svg>